<?xml version="1.0" encoding="utf-8"?>
<!-- Generator: Adobe Illustrator 16.0.0, SVG Export Plug-In . SVG Version: 6.00 Build 0)  -->
<!DOCTYPE svg PUBLIC "-//W3C//DTD SVG 1.1//EN" "http://www.w3.org/Graphics/SVG/1.1/DTD/svg11.dtd">
<svg version="1.1" id="Layer_1" xmlns="http://www.w3.org/2000/svg" xmlns:xlink="http://www.w3.org/1999/xlink" x="0px" y="0px"
	 width="709.627px" height="253.479px" viewBox="-252.583 -21.068 709.627 253.479"
	 enable-background="new -252.583 -21.068 709.627 253.479" xml:space="preserve">
<g>
	<g>
		<path fill="#22AF83" d="M-147.101,232.411c-28.153-0.001-54.633-10.968-74.56-30.881c-19.927-19.92-30.904-46.414-30.907-74.602
			l-0.016-147.996h65.655l0.004,68.998h66.029l55.061,45.295l-0.005,73.521l56.634-0.005v65.663l-137.85,0.007H-147.101z
			 M-186.91,126.926c0.006,10.64,4.151,20.641,11.673,28.162c7.53,7.521,17.534,11.663,28.166,11.663l16.001-0.001v-56.366h-55.844
			L-186.91,126.926z"/>
	</g>
</g>
<g>
	<polygon fill="#22AF83" points="65.598,110.656 -9.698,110.656 -9.698,47.93 65.598,47.93 65.6,-21.068 131.255,-21.068 
		131.259,47.93 214.632,47.924 190.529,110.384 131.271,110.378 131.253,232.41 65.598,232.411 	"/>
</g>
<g>
	<path fill="#22AF83" d="M256.251,170.758V77.445c-0.012-21.172,10.957-47.667,30.881-67.605
		c19.92-19.928,46.414-30.904,74.602-30.907h95.311l-24.111,65.654l-71.197,0.002c-10.641,0.007-20.641,4.152-28.162,11.674
		c-7.521,7.53-11.664,17.533-11.664,28.166l0.002,23.901h80.371l-0.006,124.081l-65.656,0.001v-61.653H256.251z"/>
</g>
</svg>
